HIERARCHY
ROOT hips
{
  OFFSET 0 10.6860622 2.3727825e-15
  CHANNELS 6 Xposition Yposition Zposition Yrotation Xrotation Zrotation
  JOINT leftUpperLeg
  {
    OFFSET 0.6642549969 -0.9402397400000004 0
    CHANNELS 3 Yrotation Xrotation Zrotation
    JOINT leftLowerLeg
    {
      OFFSET 0 -3.997221335632195 0
      CHANNELS 3 Yrotation Xrotation Zrotation
      JOINT leftFoot
      {
        OFFSET -0.13777839790000004 -4.6145792000000005 -0.22186036399999998
        CHANNELS 3 Yrotation Xrotation Zrotation
        JOINT leftToes
        {
          OFFSET -0.03777410834999995 -0.9130806927000008 0.85230013
          CHANNELS 3 Yrotation Xrotation Zrotation
          End Site
          {
            OFFSET -0.03777410834999995 -0.9130806927000008 0.85230013
          }
        }
      }
    }
  }
  JOINT rightUpperLeg
  {
    OFFSET -0.6642778626 -0.9402397400000004 0
    CHANNELS 3 Yrotation Xrotation Zrotation
    JOINT rightLowerLeg
    {
      OFFSET 0 -3.997221452859387 0
      CHANNELS 3 Yrotation Xrotation Zrotation
      JOINT rightFoot
      {
        OFFSET 0.1377926176 -4.6145792000000005 -0.22185782299999995
        CHANNELS 3 Yrotation Xrotation Zrotation
        JOINT rightToes
        {
          OFFSET 0.037780746850000047 -0.9130806927000008 0.85230167
          CHANNELS 3 Yrotation Xrotation Zrotation
          End Site
          {
            OFFSET 0.037780746850000047 -0.9130806927000008 0.85230167
          }
        }
      }
    }
  }
  JOINT spine
  {
    OFFSET 0 0.13988381660000015 0
    CHANNELS 3 Yrotation Xrotation Zrotation
    JOINT chest
    {
      OFFSET 0 0.6191039003973773 0
      CHANNELS 3 Yrotation Xrotation Zrotation
      JOINT upperChest
      {
        OFFSET 0 0.9855186130586943 0
        CHANNELS 3 Yrotation Xrotation Zrotation
        JOINT leftShoulder
        {
          OFFSET 0.1807663869 1.5087829790000005 0
          CHANNELS 3 Yrotation Xrotation Zrotation
          JOINT leftUpperArm
          {
            OFFSET 0.5985063006419806 0 0
            CHANNELS 3 Yrotation Xrotation Zrotation
            JOINT leftLowerArm
            {
              OFFSET 2.2993332369501065 0 0
              CHANNELS 3 Yrotation Xrotation Zrotation
              JOINT leftHand
              {
                OFFSET 2.395047042602395 0 0
                CHANNELS 3 Yrotation Xrotation Zrotation
                JOINT leftIndexProximal
                {
                  OFFSET 0.5766295810000004 0.04556643899499946 0.17265095988184
                  CHANNELS 3 Yrotation Xrotation Zrotation
                  JOINT leftIndexIntermediate
                  {
                    OFFSET 0.2957229000000008 -0.019352197700001517 -0.007932640616999987
                    CHANNELS 3 Yrotation Xrotation Zrotation
                    JOINT leftIndexDistal
                    {
                      OFFSET 0.19008243099999922 -0.012484908149998475 -0.002786250786000012
                      CHANNELS 3 Yrotation Xrotation Zrotation
                      End Site
                      {
                        OFFSET 0.19008243099999922 -0.012484908149998475 -0.002786250786000012
                      }
                    }
                  }
                }
                JOINT leftMiddleProximal
                {
                  OFFSET 0.5834975091000001 0.0524350405149987 0.02204081888183999
                  CHANNELS 3 Yrotation Xrotation Zrotation
                  JOINT leftMiddleIntermediate
                  {
                    OFFSET 0.33880573540000003 -0.019871473270000717 -0.00000971183179999946
                    CHANNELS 3 Yrotation Xrotation Zrotation
                    JOINT leftMiddleDistal
                    {
                      OFFSET 0.20676022730000088 -0.012221336379999448 0.0001471936708000235
                      CHANNELS 3 Yrotation Xrotation Zrotation
                      End Site
                      {
                        OFFSET 0.20676022730000088 -0.012221336379999448 0.0001471936708000235
                      }
                    }
                  }
                }
                JOINT leftLittleProximal
                {
                  OFFSET 0.5344154683999995 -0.012880921405001189 -0.24414037221816004
                  CHANNELS 3 Yrotation Xrotation Zrotation
                  JOINT leftLittleIntermediate
                  {
                    OFFSET 0.21758961730000093 -0.011650919939999227 0.011893592810000034
                    CHANNELS 3 Yrotation Xrotation Zrotation
                    JOINT leftLittleDistal
                    {
                      OFFSET 0.1475273964999999 -0.008152365682999818 0.006001092492999946
                      CHANNELS 3 Yrotation Xrotation Zrotation
                      End Site
                      {
                        OFFSET 0.1475273964999999 -0.008152365682999818 0.006001092492999946
                      }
                    }
                  }
                }
                JOINT leftRingProximal
                {
                  OFFSET 0.5799399463000003 0.026911854694997794 -0.12150566991816003
                  CHANNELS 3 Yrotation Xrotation Zrotation
                  JOINT leftRingIntermediate
                  {
                    OFFSET 0.26167887460000006 -0.013480186499999602 0.010996293000000053
                    CHANNELS 3 Yrotation Xrotation Zrotation
                    JOINT leftRingDistal
                    {
                      OFFSET 0.17667108799999987 -0.008990287899999228 0.0055541023999999065
                      CHANNELS 3 Yrotation Xrotation Zrotation
                      End Site
                      {
                        OFFSET 0.17667108799999987 -0.008990287899999228 0.0055541023999999065
                      }
                    }
                  }
                }
                JOINT leftThumbProximal
                {
                  OFFSET 0.11018806699999972 -0.09448718900500053 0.17047963138184
                  CHANNELS 3 Yrotation Xrotation Zrotation
                  JOINT leftThumbIntermediate
                  {
                    OFFSET 0.31062601459999983 -0.08126270900000132 0.15443142000000007
                    CHANNELS 3 Yrotation Xrotation Zrotation
                    JOINT leftThumbDistal
                    {
                      OFFSET 0.21627175790000086 -0.08833193599999878 0.018771167799999988
                      CHANNELS 3 Yrotation Xrotation Zrotation
                      End Site
                      {
                        OFFSET 0.21627175790000086 -0.08833193599999878 0.018771167799999988
                      }
                    }
                  }
                }
              }
            }
          }
        }
        JOINT neck
        {
          OFFSET 0 1.5463305265074576 0
          CHANNELS 3 Yrotation Xrotation Zrotation
          JOINT head
          {
            OFFSET 0 0.8456443600000344 0
            CHANNELS 3 Yrotation Xrotation Zrotation
            JOINT leftEye
            {
              OFFSET 0.30408573140000006 0.5104519199999995 0.1276382305
              CHANNELS 3 Yrotation Xrotation Zrotation
              End Site
              {
                OFFSET 0.30408573140000006 0.5104519199999995 0.1276382305
              }
            }
            JOINT rightEye
            {
              OFFSET -0.30409491089999996 0.5104519199999995 0.1276379445
              CHANNELS 3 Yrotation Xrotation Zrotation
              End Site
              {
                OFFSET -0.30409491089999996 0.5104519199999995 0.1276379445
              }
            }
            JOINT jaw
            {
              OFFSET -3.155239131000001e-7 -0.11984121820000082 0.60178107
              CHANNELS 3 Yrotation Xrotation Zrotation
              End Site
              {
                OFFSET -3.155239131000001e-7 -0.11984121820000082 0.60178107
              }
            }
          }
        }
        JOINT rightShoulder
        {
          OFFSET -0.1807303465 1.5087829790000005 0
          CHANNELS 3 Yrotation Xrotation Zrotation
          JOINT rightUpperArm
          {
            OFFSET -0.5985063796536958 0 0
            CHANNELS 3 Yrotation Xrotation Zrotation
            JOINT rightLowerArm
            {
              OFFSET -2.2993322059002854 0 0
              CHANNELS 3 Yrotation Xrotation Zrotation
              JOINT rightHand
              {
                OFFSET -2.395045314457259 0 0
                CHANNELS 3 Yrotation Xrotation Zrotation
                JOINT rightIndexProximal
                {
                  OFFSET -0.5764487688300002 0.0441371204405987 0.17361932004999997
                  CHANNELS 3 Yrotation Xrotation Zrotation
                  JOINT rightIndexIntermediate
                  {
                    OFFSET -0.29573011380000047 -0.01934826376999843 -0.007698921482999974
                    CHANNELS 3 Yrotation Xrotation Zrotation
                    JOINT rightIndexDistal
                    {
                      OFFSET -0.19008373999999884 -0.012503266380000655 -0.0026365778999999897
                      CHANNELS 3 Yrotation Xrotation Zrotation
                      End Site
                      {
                        OFFSET -0.19008373999999884 -0.012503266380000655 -0.0026365778999999897
                      }
                    }
                  }
                }
                JOINT rightMiddleProximal
                {
                  OFFSET -0.5834852037300005 0.05211639405060153 0.02307162440000001
                  CHANNELS 3 Yrotation Xrotation Zrotation
                  JOINT rightMiddleIntermediate
                  {
                    OFFSET -0.33880114510000003 -0.019952774050000954 0.0002455003561999819
                    CHANNELS 3 Yrotation Xrotation Zrotation
                    JOINT rightMiddleDistal
                    {
                      OFFSET -0.20675694929999955 -0.012273788999999091 0.00030209124000002766
                      CHANNELS 3 Yrotation Xrotation Zrotation
                      End Site
                      {
                        OFFSET -0.20675694929999955 -0.012273788999999091 0.00030209124000002766
                      }
                    }
                  }
                }
                JOINT rightLittleProximal
                {
                  OFFSET -0.5346811737299992 -0.011214256288399227 -0.24363941305000003
                  CHANNELS 3 Yrotation Xrotation Zrotation
                  JOINT rightLittleIntermediate
                  {
                    OFFSET -0.21757715980000092 -0.011771559690000988 0.01201554387
                    CHANNELS 3 Yrotation Xrotation Zrotation
                    JOINT rightLittleDistal
                    {
                      OFFSET -0.1475201849000004 -0.00822055339600003 0.006082065407000015
                      CHANNELS 3 Yrotation Xrotation Zrotation
                      End Site
                      {
                        OFFSET -0.1475201849000004 -0.00822055339600003 0.006082065407000015
                      }
                    }
                  }
                }
                JOINT rightRingProximal
                {
                  OFFSET -0.5800810755299999 0.027657985680600072 -0.12066365025000003
                  CHANNELS 3 Yrotation Xrotation Zrotation
                  JOINT rightRingIntermediate
                  {
                    OFFSET -0.26166445029999974 -0.013623118409999302 0.011164098990000045
                    CHANNELS 3 Yrotation Xrotation Zrotation
                    JOINT rightRingDistal
                    {
                      OFFSET -0.17666387530000027 -0.009072900100000503 0.005668185599999959
                      CHANNELS 3 Yrotation Xrotation Zrotation
                      End Site
                      {
                        OFFSET -0.17666387530000027 -0.009072900100000503 0.005668185599999959
                      }
                    }
                  }
                }
                JOINT rightThumbProximal
                {
                  OFFSET -0.10997596379000074 -0.09577489355940072 0.16989765924999997
                  CHANNELS 3 Yrotation Xrotation Zrotation
                  JOINT rightThumbIntermediate
                  {
                    OFFSET -0.31036620999999986 -0.08229339117999834 0.15440884469999996
                    CHANNELS 3 Yrotation Xrotation Zrotation
                    JOINT rightThumbDistal
                    {
                      OFFSET -0.21631306399999906 -0.08825326400000111 0.018656797720000014
                      CHANNELS 3 Yrotation Xrotation Zrotation
                      End Site
                      {
                        OFFSET -0.21631306399999906 -0.08825326400000111 0.018656797720000014
                      }
                    }
                  }
                }
              }
            }
          }
        }
      }
    }
  }
}
MOTION
Frames: 9
Frame Time: 0.03333333333333333
0 11.682712981546562 0 0 0 0 0 0 -5.826343164929014 -0.3712483961610101 -3.6333298826370974 5.838118207697276 0 0 0 0 0 0 0 0 5.826343164929014 0.3712483961610101 -3.6333298826370974 -5.838118207697276 0 0 0 0 0 0 0 -4.610651315171937 0 0 3.0831277533083026 0 0 0 0 0 1.5275236235667615 0 0 0 0 0 0 0 0 0 0 0 0 0 0 0 0 0 0 0 0 0 0 0 0 0 0 0 0 0 0 0 0 0 0 0 0 0 0 0 0 0 0 0 0 0 0 0 0 0 0 0 0 0 0 0 0 1.5275236235667615 0 0 0 0 0 0 0 0 0 0 0 0 0 0 1.5275236235667615 0 0 0 0 0 0 0 0 0 0 0 0 0 0 0 0 0 0 0 0 0 0 0 0 0 0 0 0 0 0 0 0 0 0 0 0 0 0 0 0 0 0 0 0 0 0 0 0 0 0 0 0 0 0 0
0 -7.120992330845509 -5.368352150729761 -90.40133499766667 89.73312138885133 89.3438999499025 -179.87274656084557 -48.01581262201486 -160.31071463602683 172.89920977930225 55.51228335211744 176.08679043107617 3.0608173383730755 55.642769590301135 7.537125711961753 0 0 0 179.8693944841771 -48.01390836394026 160.30847382763938 -172.8908041045475 55.51192750761592 -176.078571026743 -3.0691694611638387 55.64240650996073 -7.545481982266166 0 0 0 -0.0645421620831679 -4.94817295367308 -0.08578646308345227 -0.5829620603378871 2.6842551354926796 -0.38248782497044026 0 0 0 -0.5270438402172851 1.3926260334121243 -6.103083242976933 -53.95054844040695 -0.3730665547076599 2.8486741549913157 -34.00002752767351 -4.913551086577667 17.510621728419903 0 0 59.99898674513756 0 0 0 0 0 0 0 0 0 0 0 0 0 0 0 0 0 0 0 0 0 0 0 0 0 0 0 0 0 0 0 0 0 0 0 0 0 0 0 0 0 0 0 0 0 0 -18.474187677462336 0 0 -18.001885697092362 0 0 0 0 0 0 0 0 0 0 0.5235642741288449 1.3928249147027623 6.099496668378515 53.946647791062055 -0.37158522615466105 -2.851770748007244 33.99654116395413 -4.913078493831674 -17.513855056904745 0 0 -60.00302911070697 0 0 0 0 0 0 0 0 0 0 0 0 0 0 0 0 0 0 0 0 0 0 0 0 0 0 0 0 0 0 0 0 0 0 0 0 0 0 0 0 0 0 0 0 0
0 -7.12644941670184 -5.385282066811477 -161.3811834453524 89.18915853948643 18.373950625492956 -179.93290912350773 -48.92102980224761 -160.0345413227207 172.89920977930225 55.51228335211744 176.08679043107617 3.0825414195976077 55.39397036329535 7.740369338493075 0 0 0 179.93103514999726 -48.91865992023547 160.03049001692878 -172.8908041045475 55.51192750761592 -176.078571026743 -3.0903361372574216 55.394367238312654 -7.74875572332905 0 0 0 -0.06440086712773836 -4.334386671872973 -0.08633461989034989 -0.582765258872738 2.1851943222241337 -0.37751644455763195 0 0 0 -1.9658484607263138 1.593538731146689 -6.300793145457871 -52.858702835675885 -0.4697856215745211 2.8525382054879014 -33.00505290116142 -5.2362683504985865 17.036342956789344 -0.6524630758268062 0.2791937049940285 60.182085756746574 0 0 0 0 0 0 0 0 0 0 0 0 0 0 0 0 0 0 0 0 0 0 0 0 0 0 0 0 0 0 0 0 0 0 0 0 0 0 0 0 0 0 0 0 0 0 -17.55632385077232 0 0 -17.084064710651205 0 0 0 0 0 0 0 0 0 0 1.9408790976609473 1.5982690846294687 6.292487307277007 52.89815931583299 -0.4644968516610413 -2.8591893437642026 32.99967366645945 -5.236365659903816 -17.043987808958157 0.642443985421934 0.2889358356093818 -60.180016214448365 0 0 0 0 0 0 0 0 0 0 0 0 0 0 0 0 0 0 0 0 0 0 0 0 0 0 0 0 0 0 0 0 0 0 0 0 0 0 0 0 0 0 0 0 0
0 -7.131906502558171 -5.402211982893194 -170.73197276859213 88.44480356518534 9.0330632658908 179.99904762344266 -49.82603880665842 -159.75176065218298 172.89920977930225 55.51228335211744 176.08679043107617 3.1025850817773133 55.14512561826393 7.942178654734442 0 0 0 -179.99937629075353 -49.8231961124251 159.7458325237254 -172.8908041045475 55.51192750761592 -176.078571026743 -3.1098312021911783 55.1462908911541 -7.950603611253655 0 0 0 -0.06434484402488519 -3.7206004273938977 -0.08700512693083477 -0.5826117945340042 1.6861333028604448 -0.3725482780248268 0 0 0 -3.40548520962921 1.7894238270624714 -6.503507936108728 -51.76684654423019 -0.5665607780888289 2.8545586032102324 -32.006907858302874 -5.5507196636139 16.556257324936354 -1.3040540466156232 0.5604529595498189 60.36200440700283 0 0 0 0 0 0 0 0 0 0 0 0 0 0 0 0 0 0 0 0 0 0 0 0 0 0 0 0 0 0 0 0 0 0 0 0 0 0 0 0 0 0 0 0 0 0 -16.638460806664323 0 0 -16.16624273896851 0 0 0 0 0 0 0 0 0 0 3.3590272846217637 1.798877281180903 6.4905234018658255 51.849666077135645 -0.5575286456382114 -2.864906295675132 31.99964830492567 -5.551447503869596 -16.56829556479585 1.2840170093768886 0.5798366088058233 -60.35376041645537 0 0 0 0 0 0 0 0 0 0 0 0 0 0 0 0 0 0 0 0 0 0 0 0 0 0 0 0 0 0 0 0 0 0 0 0 0 0 0 0 0 0 0 0 0
0 -7.137363856806773 -5.419141898974909 -174.00325532177555 87.6843787655899 5.771700797489415 179.92240287622963 -50.73350426500778 -159.46098118104476 172.89920977930225 55.51228335211744 176.08679043107617 3.120985042526203 54.896154349613354 8.142651366881049 0 0 0 -179.9211113071063 -50.73017523289135 159.4531042182854 -172.8908041045475 55.51192750761592 -176.078571026743 -3.1276912131923384 54.898096342684156 -8.151124526701524 0 0 0 -0.06421448910347538 -3.1060356752259843 -0.0875514236027785 -0.5825010071079012 1.1866548580368301 -0.3675778607706804 0 0 0 -4.856602537501593 1.9815434409596906 -6.712654304576528 -50.67050173931331 -0.6637530998389204 2.854731230476344 -31.001375258841044 -5.858056437084986 16.06841895513617 -1.9559789319114709 0.8442547919530328 60.53903670422588 0 0 0 0 0 0 0 0 0 0 0 0 0 0 0 0 0 0 0 0 0 0 0 0 0 0 0 0 0 0 0 0 0 0 0 0 0 0 0 0 0 0 0 0 0 0 -15.71797522144189 0 0 -15.245796603919345 0 0 0 0 0 0 0 0 0 0 4.78819195375214 1.9959061614430704 6.694960550871168 50.79720067528332 -0.6510010977251363 -2.8689317232743528 30.99224721789579 -5.859480284988223 -16.08484574220503 1.9258878543628188 0.873187521387017 -60.52455105991641 0 0 0 0 0 0 0 0 0 0 0 0 0 0 0 0 0 0 0 0 0 0 0 0 0 0 0 0 0 0 0 0 0 0 0 0 0 0 0 0 0 0 0 0 0
0 -7.142821211055375 -5.436071815056625 -175.6570955407671 86.92018522101222 4.127785206596117 179.83681450767403 -51.64070697154886 -159.16246549312484 172.89920977930225 55.51228335211744 176.08679043107617 3.1377668597986994 54.64714867083682 8.341755613338592 0 0 0 -179.83382647906137 -51.63688806910328 159.15256603114722 -172.8908041045475 55.51192750761592 -176.078571026743 -3.143940684856944 54.64986969317649 -8.35028477918581 0 0 0 -0.06417227271951823 -2.491470792443642 -0.08822052228909301 -0.5824335879338773 0.6871765135867596 -0.3626091538068099 0 0 0 -6.3085856889225065 2.168306232573288 -6.926627267708146 -49.574133396311986 -0.7609308950861868 2.8530439218601376 -29.99269019660441 -6.156813669080667 15.57495648300228 -2.607079440389636 1.1300511156055004 60.712843929204084 0 0 0 0 0 0 0 0 0 0 0 0 0 0 0 0 0 0 0 0 0 0 0 0 0 0 0 0 0 0 0 0 0 0 0 0 0 0 0 0 0 0 0 0 0 0 -14.797488005594623 0 0 -14.325348885975371 0 0 0 0 0 0 0 0 0 0 6.21822856702655 2.1877763060137503 6.9042774246009255 49.744725442819124 -0.744531689725753 -2.8712396047711555 29.981705854893054 -6.158993980669284 -15.59575189082914 2.5669398022699443 1.1684320135638777 -60.69206039216743 0 0 0 0 0 0 0 0 0 0 0 0 0 0 0 0 0 0 0 0 0 0 0 0 0 0 0 0 0 0 0 0 0 0 0 0 0 0 0 0 0 0 0 0 0
0 -7.14827816271557 -5.4530018653344765 -176.6562027318701 86.15325265420097 3.1386216564570923 179.74145314563444 -52.54980854147357 -158.85483434650703 172.89920977930225 55.51228335211744 176.08679043107617 3.152965078917313 54.39805175418909 8.539578576151023 0 0 0 -179.7366809010008 -52.54550107281945 158.84282271041667 -172.8908041045475 55.51192750761592 -176.078571026743 -3.1586147193126886 54.40155410983771 -8.548172283489716 0 0 0 -0.06405435060022839 -1.8762666291818286 -0.08876435211353316 -0.5824098579690039 0.18735509086327704 -0.3576380719946663 0 0 0 -7.770271130219267 2.3506737016501194 -7.146638498770763 -48.474036305367285 -0.8583852383791917 2.8494823440495223 -28.977381512491814 -6.44786046731109 15.074265183338511 -3.2583487284782566 1.4182317915033555 60.88365213170507 0 0 0 0 0 0 0 0 0 0 0 0 0 0 0 0 0 0 0 0 0 0 0 0 0 0 0 0 0 0 0 0 0 0 0 0 0 0 0 0 0 0 0 0 0 0 -13.874847677489532 0 0 -13.40274488712216 0 0 0 0 0 0 0 0 0 0 7.6575865463365815 2.3754495106927793 7.11962576530498 48.68897100405696 -0.8383779545607626 -2.871828321897405 28.964538107649343 -6.450859543817822 -15.099420693765092 3.208137310957922 1.4659657082089366 -60.856500631232315 0 0 0 0 0 0 0 0 0 0 0 0 0 0 0 0 0 0 0 0 0 0 0 0 0 0 0 0 0 0 0 0 0 0 0 0 0 0 0 0 0 0 0 0 0
0 -7.153735114375765 -5.469931915612327 -177.3247629597274 85.38552124636962 2.4800095554579165 179.63586627982846 -53.45857800600114 -158.53811474773195 172.89920977930225 55.51228335211744 176.08679043107617 3.1666030417040916 54.14892472940036 8.736096088818009 0 0 0 -179.6292224373252 -53.45377744427808 158.52390572676978 -172.8908041045475 55.51192750761592 -176.078571026743 -3.171736043284169 54.15321072606568 -8.744761498178017 0 0 0 -0.06402742700242524 -1.2610623091156086 -0.0894314615129198 -0.5824294989956921 -0.3124662949265622 -0.3526671272654576 0 0 0 -9.23284158661214 2.5273724657877388 -7.371264361147905 -47.37390015296229 -0.9557532070989035 2.8440502550597127 -27.95896046976658 -6.7300290557056375 14.568170668012332 -3.9088454427329706 1.708333686782242 61.051193981749336 0 0 0 0 0 0 0 0 0 0 0 0 0 0 0 0 0 0 0 0 0 0 0 0 0 0 0 0 0 0 0 0 0 0 0 0 0 0 0 0 0 0 0 0 0 0 -12.9522064254256 0 0 -12.480141138548303 0 0 0 0 0 0 0 0 0 0 9.097839639734849 2.5576570286850573 7.339654642155931 47.633193509273504 -0.9322191574107218 -2.8706876132510257 27.944272842844185 -6.733907596505763 -14.597661922340155 3.8485719846849533 1.765319377972835 -61.017624926494115 0 0 0 0 0 0 0 0 0 0 0 0 0 0 0 0 0 0 0 0 0 0 0 0 0 0 0 0 0 0 0 0 0 0 0 0 0 0 0 0 0 0 0 0 0
0 -7.16464982287297 -5.50379174777576 -178.1659665757623 83.84696237437365 1.6587459925083212 179.3905586011365 -55.27842658915626 -157.87302598847847 172.89920977930225 55.51228335211744 176.08679043107617 3.189312484671081 53.65048901144751 9.125411371039466 0 0 0 -179.37988152895355 -55.2725991800608 157.8541416074254 -172.89080186357813 55.51193957008872 -176.07856944966971 -3.1934313316025533 53.656320393275884 -9.134239177830642 0 0 0 -0.06390701482144355 -0.029658707078076794 -0.0906405209238049 -0.582598827455788 -1.3126420741296185 -0.34271772544087825 0 0 0 -12.174545224207709 2.8648293469187145 -7.836026634520166 -45.167756534393774 -1.1505948438141824 2.8275286847277235 -25.907423101532995 -7.268670175010101 13.537511309946028 -5.209138542950603 2.2948264494453205 61.37681315585289 0 0 0 0 0 0 0 0 0 0 0 0 0 0 0 0 0 0 0 0 0 0 0 0 0 0 0 0 0 0 0 0 0 0 0 0 0 0 0 0 0 0 0 0 0 0 -11.103553768019625 0 0 -10.631567125356549 0 0 0 0 0 0 0 0 0 0 11.994332669144175 2.9067505015473376 7.795347706884714 45.51644604663331 -1.1202117183955975 -2.863193279297773 25.889065092584598 -7.274497947170096 -13.575624063554928 5.12872575184245 2.3700193370230096 -61.330229489134084 0 0 0 0 0 0 0 0 0 0 0 0 0 0 0 0 0 0 0 0 0 0 0 0 0 0 0 0 0 0 0 0 0 0 0 0 0 0 0 0 0 0 0 0 0
